# xmcd
#
# Track frame offsets: 
#        150
#        10967
#        21850
#        34067
#        49101
#        65223
#        80767
#        96101
#        117183
#        137538
#        153739
#        171469
#        187979
#        205689
#
# Disc length: 3136 seconds
#
# Revision: 2
# Processed by: cddbd v1.5.2PL0 Copyright (c) Steve Scherf et al.
# Submitted via: ExactAudioCopyFreeDBPlugin 1.0
#
DISCID=c00c3e0e
DTITLE=Сектор Газа - Наркологический университет миллионов
DYEAR=1997
DGENRE=Punk Rock
TTITLE0=Опять сегодня
TTITLE1=Кусок
TTITLE2=Новогодняя песня
TTITLE3=Песенка
TTITLE4=Похмел
TTITLE5=Самые лучшие тачки
TTITLE6=Марш наркоманов
TTITLE7=Свин
TTITLE8=Любовь раскумаренная
TTITLE9=Хорошо в деревне летом
TTITLE10=Пора домой
TTITLE11=Звездная болезнь
TTITLE12=Вальпургиева ночъ
TTITLE13=Песенка (remix)
EXTD=
EXTT0=
EXTT1=
EXTT2=
EXTT3=
EXTT4=
EXTT5=
EXTT6=
EXTT7=
EXTT8=
EXTT9=
EXTT10=
EXTT11=
EXTT12=
EXTT13=
PLAYORDER=
